# xmcd
#
# Track frame offsets:
#	150
#	11361
#	23881
#	36099
#	46671
#	58956
#	71119
#	83506
#	94849
#	105358
#	117712
#	128907
#	138945
#	150229
#	162323
#	176733
#	185866
#	195152
#	205713
#	219037
#	229641
#	240715
#	250248
#	262679
#	272219
#	283302
#	294488
#	304569
#	315152
#	324855
#	335280
#
# Disc length: 4654 seconds
#
# Revision: 3
# Processed by: cddbd v1.5.2PL0 Copyright (c) Steve Scherf et al.
# Submitted via: EZCDAudioConverter 7.0.5.1
#
DISCID=a3122c1f
DTITLE=Wanda Jackson - Tears Will Be The Chaser For Your Wine [CD4]
DYEAR=1997
DGENRE=Country
TTITLE0=Together Again
TTITLE1=Swinging Doors
TTITLE2=The Hurtin's All Over
TTITLE3=I Betcha My Heart I Love You
TTITLE4=There Stands The Glass
TTITLE5=Don't Touch Me
TTITLE6=The Pain Of It All
TTITLE7=Two Separate Barstools
TTITLE8=Today I Started Loving You Again
TTITLE9=I'm A Believer
TTITLE10=Walk On Out Of My Mind
TTITLE11=Memphis, Tennessee
TTITLE12=Walk Right In
TTITLE13=If I Had A Hammer
TTITLE14=Fever
TTITLE15=Big Daddy
TTITLE16=Love's Gonna Live Here
TTITLE17=You're The Reason I'm Living
TTITLE18=We'll Sing In The Sunshine
TTITLE19=Yours Love
TTITLE20=This Land Is Your Land
TTITLE21=Less Of Me
TTITLE22=Please Don't Sell My Daddy No More Wine
TTITLE23=He's Got The Whole World In His Hands
TTITLE24=Everything Is Leaving
TTITLE25=The Hunter
TTITLE26=My Big Iron Skillet
TTITLE27=Just Between You And Me
TTITLE28=Your Good Girl's Gonna Go Bad
TTITLE29=Try A Little Kindness
TTITLE30=Those Were The Days
EXTD=
EXTT0=
EXTT1=
EXTT2=
EXTT3=
EXTT4=
EXTT5=
EXTT6=
EXTT7=
EXTT8=
EXTT9=
EXTT10=
EXTT11=
EXTT12=
EXTT13=
EXTT14=
EXTT15=
EXTT16=
EXTT17=
EXTT18=
EXTT19=
EXTT20=
EXTT21=
EXTT22=
EXTT23=
EXTT24=
EXTT25=
EXTT26=
EXTT27=
EXTT28=
EXTT29=
EXTT30=
PLAYORDER=
